<svg width="203" height="203" viewBox="0 0 203 203" fill="none" xmlns="http://www.w3.org/2000/svg">
<g clip-path="url(#clip0_115_26)">
<path d="M139.562 12.6875C142.927 12.6875 146.155 14.0242 148.534 16.4036C150.913 18.7829 152.25 22.0101 152.25 25.375V101.5V177.625C152.25 180.99 150.913 184.217 148.534 186.596C146.155 188.976 142.927 190.312 139.562 190.312H63.4375C60.0726 190.312 56.8455 188.976 54.4661 186.596C52.0867 184.217 50.75 180.99 50.75 177.625V25.375C50.75 22.0101 52.0867 18.7829 54.4661 16.4036C56.8455 14.0242 60.0726 12.6875 63.4375 12.6875H139.562ZM63.4375 0C56.7076 0 50.2534 2.67343 45.4947 7.43217C40.7359 12.1909 38.0625 18.6451 38.0625 25.375V177.625C38.0625 184.355 40.7359 190.809 45.4947 195.568C50.2534 200.327 56.7076 203 63.4375 203H139.562C146.292 203 152.747 200.327 157.505 195.568C162.264 190.809 164.938 184.355 164.938 177.625V25.375C164.938 18.6451 162.264 12.1909 157.505 7.43217C152.747 2.67343 146.292 0 139.562 0L63.4375 0Z" fill="url(#paint0_linear_115_26)"/>
<path d="M101.5 177.625C104.865 177.625 108.092 176.288 110.471 173.909C112.851 171.53 114.188 168.302 114.188 164.938C114.188 161.573 112.851 158.345 110.471 155.966C108.092 153.587 104.865 152.25 101.5 152.25C98.1351 152.25 94.908 153.587 92.5286 155.966C90.1492 158.345 88.8125 161.573 88.8125 164.938C88.8125 168.302 90.1492 171.53 92.5286 173.909C94.908 176.288 98.1351 177.625 101.5 177.625Z" fill="url(#paint1_linear_115_26)"/>
</g>
<defs>
<linearGradient id="paint0_linear_115_26" x1="9.35714" y1="-23.0714" x2="249.974" y2="112.276" gradientUnits="userSpaceOnUse">
<stop stop-color="#166ACC"/>
<stop offset="1" stop-color="#070047"/>
</linearGradient>
<linearGradient id="paint1_linear_115_26" x1="83.0714" y1="149.366" x2="118.071" y2="180.866" gradientUnits="userSpaceOnUse">
<stop stop-color="#166ACC"/>
<stop offset="1" stop-color="#070047"/>
</linearGradient>
<clipPath id="clip0_115_26">
<rect width="203" height="203" fill="white"/>
</clipPath>
</defs>
</svg>
