<svg width="203" height="203" viewBox="0 0 203 203" fill="none" xmlns="http://www.w3.org/2000/svg">
<path d="M126.875 88.8125H177.625C180.989 88.8091 184.214 87.4713 186.593 85.0927C188.971 82.7141 190.309 79.4889 190.312 76.125V25.375C190.309 22.0111 188.971 18.7859 186.593 16.4073C184.214 14.0287 180.989 12.6909 177.625 12.6875H126.875C123.511 12.6909 120.286 14.0287 117.907 16.4073C115.529 18.7859 114.191 22.0111 114.188 25.375H57.0938C53.7298 25.3784 50.5047 26.7162 48.126 29.0948C45.7474 31.4734 44.4096 34.6986 44.4062 38.0625V63.4375H25.375C22.0111 63.4409 18.7859 64.7787 16.4073 67.1573C14.0287 69.5359 12.6909 72.7611 12.6875 76.125V126.875C12.6909 130.239 14.0287 133.464 16.4073 135.843C18.7859 138.221 22.0111 139.559 25.375 139.562H38.0625V164.938C38.0659 168.301 39.4037 171.527 41.7823 173.905C44.1609 176.284 47.3861 177.622 50.75 177.625H114.188C114.191 180.989 115.529 184.214 117.907 186.593C120.286 188.971 123.511 190.309 126.875 190.312H177.625C180.989 190.309 184.214 188.971 186.593 186.593C188.971 184.214 190.309 180.989 190.312 177.625V126.875C190.309 123.511 188.971 120.286 186.593 117.907C184.214 115.529 180.989 114.191 177.625 114.188H126.875C123.511 114.191 120.286 115.529 117.907 117.907C115.529 120.286 114.191 123.511 114.188 126.875V164.938H50.75V139.562H76.125C79.4889 139.559 82.7141 138.221 85.0927 135.843C87.4713 133.464 88.8091 130.239 88.8125 126.875V76.125C88.8091 72.7611 87.4713 69.5359 85.0927 67.1573C82.7141 64.7787 79.4889 63.4409 76.125 63.4375H57.0938V38.0625H114.188V76.125C114.191 79.4889 115.529 82.7141 117.907 85.0927C120.286 87.4713 123.511 88.8091 126.875 88.8125ZM126.875 177.625V152.25H177.625V177.625H126.875ZM177.625 126.875V139.562H126.875V126.875H177.625ZM25.375 126.875V101.5H76.125V126.875H25.375ZM76.125 88.8125H25.375V76.125H76.125V88.8125ZM126.875 76.125V50.75H177.625V76.125H126.875ZM177.625 25.375V38.0625H126.875V25.375H177.625Z" fill="url(#paint0_linear_115_24)"/>
<defs>
<linearGradient id="paint0_linear_115_24" x1="-27.5" y1="-7.5" x2="217.5" y2="213" gradientUnits="userSpaceOnUse">
<stop stop-color="#166ACC"/>
<stop offset="1" stop-color="#070047"/>
</linearGradient>
</defs>
</svg>
