<svg width="153" height="136" viewBox="0 0 153 136" fill="none" xmlns="http://www.w3.org/2000/svg">
<g clip-path="url(#clip0_128_16)">
<path d="M125.474 44.2117C123.857 43.6583 122.225 43.1455 120.582 42.674C120.858 41.549 121.112 40.4376 121.338 39.3458C125.041 21.4163 122.62 6.97185 114.35 2.21606C106.42 -2.34315 93.4522 2.41086 80.3552 13.7775C79.0645 14.8997 77.8023 16.0543 76.5701 17.2401C75.7451 16.4516 74.9056 15.6784 74.052 14.9209C60.3257 2.76731 46.5673 -2.35499 38.3058 2.41442C30.3834 6.98784 28.0375 20.5666 31.372 37.5588C31.7038 39.2417 32.0784 40.916 32.4954 42.5799C30.5479 43.1317 28.6687 43.7191 26.8702 44.3443C10.7772 49.9397 0.5 58.7082 0.5 67.8036C0.5 77.1973 11.5331 86.6195 28.2946 92.3327C29.6535 92.794 31.0237 93.2214 32.404 93.6146C31.9557 95.4067 31.5577 97.211 31.2105 99.0253C28.0316 115.723 30.5141 128.98 38.4151 133.525C46.5756 138.218 60.2722 133.395 73.6084 121.769C74.6899 120.823 75.7475 119.852 76.7803 118.854C78.1147 120.138 79.4848 121.384 80.889 122.592C93.8078 133.678 106.566 138.154 114.46 133.597C122.612 128.89 125.262 114.648 121.822 97.32C121.551 95.9625 121.247 94.6117 120.911 93.2688C121.873 92.9846 122.817 92.6921 123.737 92.3878C141.162 86.6307 152.5 77.3228 152.5 67.8036C152.5 58.6751 141.891 49.8474 125.474 44.2117V44.2117ZM121.695 86.2417C120.864 86.5159 120.011 86.7805 119.142 87.0381C117.218 80.9649 114.622 74.5074 111.445 67.8349C114.477 61.3218 116.973 54.9466 118.843 48.913C120.398 49.3619 121.906 49.8349 123.361 50.3341C137.427 55.1633 146.007 62.3023 146.007 67.8036C146.007 73.663 136.741 81.2698 121.695 86.2417V86.2417ZM115.452 98.5776C116.974 106.239 117.19 113.167 116.183 118.583C115.278 123.45 113.457 126.694 111.206 127.993C106.416 130.759 96.1721 127.164 85.1242 117.684C83.8182 116.561 82.5437 115.402 81.3022 114.208C85.5856 109.537 89.8659 104.107 94.0435 98.0755C101.392 97.4254 108.334 96.362 114.629 94.9107C114.933 96.1264 115.207 97.349 115.452 98.5776V98.5776ZM52.3201 127.516C47.6402 129.163 43.9126 129.211 41.6593 127.915C36.8648 125.158 34.8716 114.512 37.5904 100.233C37.9136 98.5458 38.2836 96.8677 38.7001 95.2009C44.9262 96.5746 51.8178 97.5622 59.1833 98.1578C63.3894 104.059 67.7932 109.484 72.2315 114.233C71.2883 115.144 70.3228 116.03 69.3358 116.893C63.4381 122.034 57.5285 125.681 52.3201 127.516V127.516ZM30.3953 86.2056C22.9835 83.6791 16.8626 80.3959 12.6671 76.813C8.89681 73.5938 6.99384 70.397 6.99384 67.8036C6.99384 62.284 15.2452 55.2438 29.0077 50.459C30.6779 49.8788 32.4259 49.3311 34.2398 48.8171C36.1422 54.9868 38.6372 61.4378 41.6481 67.9611C38.598 74.5808 36.0674 81.1348 34.1466 87.3774C32.8867 87.0175 31.6359 86.6268 30.3953 86.2056V86.2056ZM37.7448 36.3148C34.8882 21.7567 36.7852 10.7749 41.5596 8.01869C46.6445 5.08304 57.8889 9.26863 69.7407 19.7631C70.5136 20.449 71.2739 21.1488 72.0213 21.8621C67.605 26.5913 63.2416 31.9753 59.0728 37.8419C51.9241 38.5026 45.0811 39.5637 38.7897 40.9853C38.4021 39.4377 38.0537 37.8806 37.7448 36.3154V36.3148ZM103.311 52.4603C101.825 49.9006 100.284 47.3731 98.6884 44.8796C103.538 45.4913 108.185 46.303 112.548 47.2954C111.239 51.4828 109.606 55.8602 107.684 60.3484C106.279 57.6903 104.821 55.0604 103.311 52.4603V52.4603ZM76.573 26.49C79.5679 29.7259 82.5675 33.3383 85.5179 37.258C79.5329 36.9762 73.5379 36.975 67.5528 37.2545C70.5061 33.3709 73.5313 29.7632 76.573 26.49ZM49.6637 52.5047C48.1724 55.0839 46.7417 57.6973 45.3727 60.343C43.4822 55.8709 41.8642 51.4733 40.5431 47.2267C44.8798 46.2592 49.5046 45.4682 54.3234 44.8678C52.7105 47.3765 51.1568 49.9227 49.6637 52.5042V52.5047ZM54.4618 91.2C49.4832 90.6458 44.789 89.8956 40.4534 88.9542C41.7953 84.6318 43.4489 80.1407 45.3804 75.5726C46.7548 78.2202 48.1915 80.8353 49.6892 83.4156C51.2294 86.0682 52.8242 88.6664 54.4618 91.2ZM76.7523 109.573C73.6743 106.262 70.6047 102.599 67.6068 98.6588C70.5174 98.7725 73.4843 98.8305 76.5 98.8305C79.5982 98.8305 82.6608 98.7612 85.6752 98.6274C82.7154 102.638 79.727 106.307 76.7523 109.573ZM107.745 75.3393C109.777 79.9577 111.489 84.4251 112.849 88.6735C108.442 89.6765 103.684 90.4842 98.67 91.084C100.277 88.5441 101.832 85.9727 103.336 83.3712C104.865 80.7269 106.335 78.0489 107.745 75.3393V75.3393ZM97.7117 80.1359C95.4093 84.1246 92.9774 88.0375 90.4199 91.8685C85.7872 92.1957 81.1443 92.3582 76.5 92.3558C71.7696 92.3558 67.1686 92.209 62.7381 91.9224C60.1138 88.1002 57.6355 84.1805 55.3085 80.1715H55.3091C52.993 76.1837 50.8296 72.1096 48.8235 67.9581C50.8244 63.8056 52.9813 59.7296 55.2895 55.7388L55.2889 55.7394C57.5962 51.7476 60.0547 47.8446 62.6591 44.0388C67.1793 43.6978 71.8147 43.5201 76.4994 43.5201H76.5C81.2061 43.5201 85.8474 43.6995 90.3664 44.043C92.9445 47.843 95.3874 51.7326 97.6903 55.7045C100.006 59.6865 102.192 63.7426 104.243 67.8663C102.213 72.0322 100.034 76.1247 97.7117 80.1359V80.1359ZM111.107 7.82567C116.196 10.753 118.176 22.5578 114.978 38.0384C114.774 39.0261 114.545 40.032 114.295 41.0522C107.988 39.6004 101.141 38.521 93.9711 37.8501C89.7947 31.919 85.4668 26.5267 81.1223 21.8586C82.2609 20.7641 83.4266 19.6979 84.6183 18.6612C95.8402 8.92284 106.328 5.07771 111.107 7.82567V7.82567ZM76.5 54.268C83.9961 54.268 90.0731 60.3282 90.0731 67.8036C90.0731 75.2789 83.9961 81.3391 76.5 81.3391C69.0039 81.3391 62.9269 75.2789 62.9269 67.8036C62.9269 60.3282 69.0039 54.268 76.5 54.268V54.268Z" fill="#00D8FF"/>
</g>
<defs>
<clipPath id="clip0_128_16">
<rect width="152" height="135" fill="white" transform="translate(0.5 0.5)"/>
</clipPath>
</defs>
</svg>
