<svg width="115" height="154" viewBox="0 0 115 154" fill="none" xmlns="http://www.w3.org/2000/svg">
<g clip-path="url(#clip0_128_21)">
<path d="M37.2624 119.049C37.2624 119.049 31.3851 122.465 41.4452 123.621C53.633 125.01 59.8615 124.811 73.2926 122.27C73.2926 122.27 76.8239 124.483 81.7549 126.4C51.6469 139.298 13.6136 125.653 37.2624 119.049ZM33.5832 102.218C33.5832 102.218 26.9912 107.096 37.0589 108.136C50.078 109.479 60.3594 109.588 78.1505 106.164C78.1505 106.164 80.6113 108.658 84.4806 110.022C48.0777 120.661 7.53154 110.861 33.5832 102.218Z" fill="#5382A1"/>
<path d="M64.5991 73.6686C72.0181 82.2054 62.65 89.8876 62.65 89.8876C62.65 89.8876 81.4872 80.1682 72.8361 67.9969C64.7563 56.6472 58.5598 51.007 92.1039 31.563C92.1039 31.563 39.451 44.7064 64.5991 73.6682" fill="#E76F00"/>
<path d="M104.42 131.497C104.42 131.497 108.769 135.079 99.6296 137.85C82.2509 143.112 27.2966 144.701 12.0304 138.06C6.54286 135.674 16.834 132.362 20.071 131.667C23.4469 130.936 25.3765 131.072 25.3765 131.072C19.2735 126.775 -14.0707 139.51 8.43944 143.156C69.8271 153.107 120.343 138.676 104.42 131.497ZM40.0882 84.78C40.0882 84.78 12.1355 91.4163 30.1898 93.8255C37.8127 94.8457 53.009 94.6151 67.1641 93.4294C78.7325 92.4547 90.3484 90.3806 90.3484 90.3806C90.3484 90.3806 86.2694 92.1266 83.3183 94.1407C54.9323 101.603 0.0956226 98.1313 15.8824 90.4985C29.2333 84.0483 40.0887 84.78 40.0887 84.78M90.2331 112.795C119.089 97.8077 105.747 83.4056 96.435 85.3462C94.1523 85.8207 93.1348 86.2319 93.1348 86.2319C93.1348 86.2319 93.9822 84.9056 95.6005 84.3314C114.023 77.8576 128.192 103.424 89.6533 113.55C89.6533 113.55 90.1 113.152 90.2331 112.795Z" fill="#5382A1"/>
<path d="M72.8361 0.16524C72.8361 0.16524 88.8171 16.1439 57.679 40.7131C32.7099 60.4224 51.9853 71.66 57.6688 84.4994C43.0937 71.356 32.3973 59.7855 39.5735 49.0171C50.1056 33.2089 79.2838 25.545 72.8361 0.164795" fill="#E76F00"/>
<path d="M42.924 153.406C70.622 155.178 113.155 152.423 114.162 139.323C114.162 139.323 112.226 144.29 91.2716 148.233C67.6308 152.679 38.4735 152.16 21.1798 149.311C21.1803 149.311 24.72 152.239 42.9244 153.406" fill="#5382A1"/>
</g>
<defs>
<clipPath id="clip0_128_21">
<rect width="114" height="154" fill="white" transform="translate(0.5)"/>
</clipPath>
</defs>
</svg>
