<svg width="137" height="136" viewBox="0 0 137 136" fill="none" xmlns="http://www.w3.org/2000/svg">
<g clip-path="url(#clip0_128_18)">
<path d="M0.5 0H136.5V136H0.5V0Z" fill="#F7DF1E"/>
<path d="M36.2594 113.651L46.6666 107.353C48.6748 110.913 50.5012 113.925 54.8824 113.925C59.0819 113.925 61.7302 112.282 61.7302 105.892V62.4373H74.5105V106.073C74.5105 119.31 66.7511 125.336 55.4301 125.336C45.2062 125.336 39.2716 120.041 36.2589 113.65M81.4523 112.282L91.8585 106.257C94.5981 110.731 98.1586 114.017 104.457 114.017C109.753 114.017 113.13 111.369 113.13 107.717C113.13 103.336 109.661 101.783 103.818 99.228L100.624 97.8573C91.4027 93.933 85.2864 89.003 85.2864 78.5958C85.2864 69.0099 92.5895 61.7063 104.001 61.7063C112.126 61.7063 117.969 64.5368 122.168 71.9313L112.217 78.3222C110.025 74.3968 107.653 72.845 104.001 72.845C100.258 72.845 97.8839 75.2186 97.8839 78.3222C97.8839 82.1562 100.258 83.7091 105.735 86.0827L108.93 87.4517C119.794 92.1081 125.91 96.8549 125.91 107.535C125.91 119.039 116.872 125.337 104.731 125.337C92.8631 125.337 85.1945 119.677 81.4518 112.282" fill="black"/>
</g>
<defs>
<clipPath id="clip0_128_18">
<rect width="136" height="136" fill="white" transform="translate(0.5)"/>
</clipPath>
</defs>
</svg>
