<svg width="169" height="168" viewBox="0 0 169 168" fill="none" xmlns="http://www.w3.org/2000/svg">
<path d="M84.5 122.666C125.093 122.666 158 105.355 158 84C158 62.6452 125.093 45.3337 84.5 45.3337C43.9071 45.3337 11 62.6452 11 84C11 105.355 43.9071 122.666 84.5 122.666Z" fill="url(#paint0_radial_128_27)"/>
<path d="M84.5 119.795C123.507 119.795 155.128 103.769 155.128 84.0001C155.128 64.2313 123.507 48.2056 84.5 48.2056C45.4931 48.2056 13.8717 64.2313 13.8717 84.0001C13.8717 103.769 45.4931 119.795 84.5 119.795Z" fill="#6280B6"/>
<path d="M98.8063 95.5499L102.308 77.5214C102.807 75.9785 102.889 74.3311 102.546 72.7462C102.203 71.1614 101.447 69.6953 100.355 68.4967C97.3065 66.332 93.5737 65.3521 89.855 65.7404H83.8018L85.5395 56.8154C85.5712 56.6493 85.5658 56.4781 85.5237 56.3143C85.4817 56.1504 85.404 55.9979 85.2961 55.8675C85.1883 55.7371 85.0531 55.6321 84.9 55.5601C84.747 55.488 84.5799 55.4505 84.4108 55.4504H76.0108C75.744 55.4504 75.4856 55.543 75.2797 55.7125C75.0737 55.8821 74.9332 56.1179 74.882 56.3797L71.1598 75.5212C70.8733 73.4746 70.004 71.5537 68.6555 69.9877C67.1542 68.4841 65.343 67.3261 63.3482 66.5944C61.3534 65.8627 59.223 65.5748 57.1055 65.7509H40.925C40.6583 65.7509 40.3998 65.8435 40.1939 66.013C39.988 66.1826 39.8474 66.4184 39.7963 66.6802L32.2678 105.425C32.2361 105.591 32.2415 105.762 32.2836 105.926C32.3256 106.09 32.4033 106.243 32.5111 106.373C32.6189 106.504 32.7542 106.608 32.9072 106.681C33.0603 106.753 33.2273 106.79 33.3965 106.79H41.8123C42.079 106.79 42.3374 106.698 42.5434 106.528C42.7493 106.359 42.8899 106.123 42.941 105.861L44.7628 96.4897H51.0628C53.8444 96.564 56.6209 96.2098 59.2948 95.4397C61.5493 94.6938 63.611 93.4585 65.3323 91.8224C66.7428 90.5376 67.9469 89.043 68.9023 87.3914L67.3955 95.1352C67.3638 95.3014 67.3692 95.4725 67.4113 95.6363C67.4534 95.8002 67.5311 95.9528 67.6389 96.0831C67.7467 96.2135 67.8819 96.3185 68.035 96.3906C68.188 96.4627 68.3551 96.5001 68.5243 96.5002H76.9243C77.191 96.5003 77.4494 96.4076 77.6554 96.2381C77.8613 96.0686 78.0019 95.8327 78.053 95.5709L82.1848 74.3032H87.9283C90.3748 74.3032 91.0783 74.7914 91.2883 75.0014C91.4983 75.2114 91.8133 75.8677 91.4195 77.9887L88.0858 95.1299C88.0541 95.2961 88.0595 95.4672 88.1016 95.6311C88.1436 95.795 88.2213 95.9475 88.3291 96.0779C88.4369 96.2082 88.5722 96.3132 88.7252 96.3853C88.8783 96.4574 89.0453 96.4948 89.2145 96.4949H97.7195C97.9812 96.4847 98.2316 96.3855 98.4292 96.2137C98.6268 96.0418 98.7598 95.8077 98.8063 95.5499ZM59.9825 80.6714C59.7257 82.8755 58.6795 84.9121 57.0373 86.4044C54.9744 87.6876 52.5556 88.278 50.1335 88.0897H46.3955L49.0993 74.1719H53.9345C57.4888 74.1719 58.9168 74.9332 59.4943 75.5684C59.9348 76.335 60.2063 77.187 60.2905 78.0671C60.3747 78.9473 60.2697 79.8352 59.9825 80.6714ZM134.617 69.9929C133.115 68.4894 131.304 67.3314 129.309 66.5996C127.314 65.8679 125.184 65.5801 123.067 65.7562H106.839C106.572 65.7561 106.314 65.8488 106.108 66.0183C105.902 66.1878 105.761 66.4237 105.71 66.6854L98.1815 105.43C98.1498 105.597 98.1552 105.768 98.1973 105.932C98.2394 106.095 98.3171 106.248 98.4249 106.378C98.5327 106.509 98.6679 106.614 98.821 106.686C98.974 106.758 99.1411 106.795 99.3103 106.795H107.752C108.019 106.796 108.277 106.703 108.483 106.533C108.689 106.364 108.83 106.128 108.881 105.866L110.703 96.4949H117.003C119.784 96.5692 122.561 96.2151 125.235 95.4449C127.489 94.699 129.551 93.4638 131.272 91.8277C134.22 89.1711 136.206 85.6141 136.921 81.7109C137.486 79.7141 137.572 77.6122 137.171 75.5761C136.771 73.54 135.896 71.6271 134.617 69.9929ZM125.865 80.6714C125.608 82.8755 124.562 84.9121 122.92 86.4044C120.852 87.689 118.427 88.2778 116 88.0844H112.273L114.976 74.1667H119.812C123.366 74.1667 124.794 74.9279 125.371 75.5632C125.813 76.3301 126.086 77.1827 126.171 78.0639C126.256 78.945 126.152 79.8341 125.865 80.6714Z" fill="white"/>
<path d="M53.9345 73.017C55.0672 72.8744 56.217 72.9578 57.3173 73.2624C58.4176 73.5669 59.4466 74.0867 60.3447 74.7915C60.9243 75.6837 61.2939 76.6959 61.4258 77.7516C61.5576 78.8074 61.4483 79.8793 61.106 80.8867C60.8059 83.3673 59.6067 85.6517 57.7355 87.3075C55.4787 88.7611 52.811 89.4427 50.1335 89.25H44.999L48.149 73.0327L53.9345 73.017ZM33.3702 105.651H41.8122L43.8125 95.3505H51.0417C53.7027 95.4231 56.3589 95.0849 58.9167 94.3477C61.016 93.6546 62.9348 92.5033 64.5342 90.9772C67.3028 88.4867 69.1676 85.1486 69.8367 81.4852C70.3665 79.6635 70.4596 77.7426 70.1084 75.8782C69.7573 74.0138 68.9717 72.2584 67.8155 70.7542C66.4213 69.3752 64.7431 68.317 62.8979 67.6532C61.0527 66.9895 59.0849 66.7363 57.1317 66.9112H40.925L33.3702 105.651ZM76.0317 56.6055H84.4317L82.4 66.906H89.8602C93.2867 66.5474 96.729 67.4182 99.5727 69.363C100.514 70.4328 101.157 71.7313 101.438 73.1282C101.719 74.5251 101.628 75.9714 101.174 77.322L97.6722 95.3505H89.1725L92.5062 78.2092C92.7384 77.555 92.8212 76.857 92.7485 76.1666C92.6759 75.4762 92.4496 74.8108 92.0862 74.2192C90.8705 73.3483 89.3688 72.9729 87.8862 73.1692H81.1925L76.877 95.3662H68.477L76.0317 56.6055ZM119.817 73.017C120.949 72.8744 122.099 72.9578 123.2 73.2624C124.3 73.5669 125.329 74.0867 126.227 74.7915C126.807 75.6837 127.176 76.6959 127.308 77.7516C127.44 78.8074 127.331 79.8793 126.988 80.8867C126.688 83.3673 125.489 85.6517 123.618 87.3075C121.357 88.7644 118.683 89.4462 116 89.25H110.865L114.015 73.0327L119.817 73.017ZM99.2525 105.651H107.694L109.695 95.3505H116.924C119.585 95.4231 122.241 95.0849 124.799 94.3477C126.898 93.6546 128.817 92.5033 130.416 90.9772C133.185 88.4867 135.05 85.1486 135.719 81.4852C136.249 79.6635 136.342 77.7426 135.991 75.8782C135.64 74.0138 134.854 72.2584 133.698 70.7542C132.304 69.3752 130.625 68.317 128.78 67.6532C126.935 66.9895 124.967 66.7363 123.014 66.9112H106.781L99.2525 105.651Z" fill="#000004"/>
<defs>
<radialGradient id="paint0_radial_128_27" cx="0" cy="0" r="1" gradientUnits="userSpaceOnUse" gradientTransform="translate(55.1315 58.9312) scale(96.516 96.516)">
<stop stop-color="white"/>
<stop offset="0.5" stop-color="#4C6B96"/>
<stop offset="1" stop-color="#231F20"/>
</radialGradient>
</defs>
</svg>
